<?xml version="1.0" encoding="UTF-8" standalone="no"?>
<!DOCTYPE svg PUBLIC "-//W3C//DTD SVG 1.1//EN" "http://www.w3.org/Graphics/SVG/1.1/DTD/svg11.dtd">
<svg width="100%" height="100%" viewBox="0 0 108 108" version="1.1" xmlns="http://www.w3.org/2000/svg" xmlns:xlink="http://www.w3.org/1999/xlink" xml:space="preserve" xmlns:serif="http://www.serif.com/" style="fill-rule:evenodd;clip-rule:evenodd;stroke-linejoin:round;stroke-miterlimit:2;">
    <g id="spare-logo" transform="matrix(0.0833333,0,0,0.0833333,9,9)">
        <g transform="matrix(12,0,0,12,-108,-108)">
            <rect x="0" y="0" width="108" height="108" style="fill:none;"/>
        </g>
        <g id="dial-beta" transform="matrix(0.842049,0,0,0.842049,-167.321,-167.321)">
            <path d="M198.707,840C198.707,648.839 202.87,564.832 221.569,476.649C227.054,450.78 246.004,375.8 310.902,310.902C375.8,246.004 447.687,227.712 476.67,221.566C564.853,202.867 648.839,198.707 840,198.707C1031.16,198.707 1115.15,202.867 1203.33,221.566C1232.31,227.712 1304.2,246.004 1369.1,310.902C1434,375.8 1452.95,450.78 1458.43,476.649C1477.13,564.832 1481.29,648.839 1481.29,840C1481.29,1031.16 1477.13,1115.17 1458.43,1203.35C1452.95,1229.22 1434,1304.2 1369.1,1369.1C1304.2,1434 1232.31,1452.29 1203.33,1458.43C1115.15,1477.13 1031.16,1481.29 840,1481.29C648.839,1481.29 564.853,1477.13 476.67,1458.43C447.687,1452.29 375.8,1434 310.902,1369.1C246.004,1304.2 227.054,1229.22 221.569,1203.35C202.87,1115.17 198.707,1031.16 198.707,840Z" style="fill:rgb(242,242,243);"/>
        </g>
        <g id="_-" serif:id="&gt;" transform="matrix(1.42283,0,0,1.42283,-220.999,-348.169)">
            <path d="M197.493,677.709L326.291,624.742L197.493,571.775L197.493,436.807L502.625,570.46L502.625,677.994L197.493,811.647L197.493,677.709Z" style="fill:url(#_Linear1);"/>
        </g>
        <g id="S" transform="matrix(1.87875,0,0,1.87875,158.93,-643.822)">
            <path d="M458.32,703.341C458.32,781.323 401.168,835.922 316.616,835.922C252.89,835.922 205.491,803.703 179.103,742.503L170.814,723.282L259.461,680.237L268.93,700.2C281.868,727.474 296.336,740.271 316.616,740.271C339.884,740.271 359.068,729.857 359.068,710.064C359.068,694.745 350.018,685.918 338.306,678.789C326.993,671.903 313.372,666.566 299.55,660.984C244.963,639.036 190.519,613.288 190.519,536.473C190.519,473.75 244.811,424.301 319.257,424.301C370.572,424.301 416.174,449.891 442.256,493.551L453.195,511.861L370.992,563.937L359.214,545.718C348.327,528.877 332.978,518.751 316.136,518.751C302.38,518.751 289.771,524.306 289.771,535.992C289.771,543.617 294.638,548.476 300.837,552.828C311.968,560.644 327.172,566.337 343.084,572.507L343.148,572.532C398.987,594.589 458.32,621.537 458.32,703.341Z" style="fill:url(#_Linear2);"/>
        </g>
    </g>
    <defs>
        <linearGradient id="_Linear1" x1="0" y1="0" x2="1" y2="0" gradientUnits="userSpaceOnUse" gradientTransform="matrix(305.132,0,0,374.84,197.493,624.227)"><stop offset="0" style="stop-color:rgb(204,219,30);stop-opacity:1"/><stop offset="1" style="stop-color:rgb(181,204,57);stop-opacity:1"/></linearGradient>
        <linearGradient id="_Linear2" x1="0" y1="0" x2="1" y2="0" gradientUnits="userSpaceOnUse" gradientTransform="matrix(287.506,0,0,411.621,170.814,630.111)"><stop offset="0" style="stop-color:rgb(181,204,57);stop-opacity:1"/><stop offset="1" style="stop-color:rgb(159,193,49);stop-opacity:1"/></linearGradient>
    </defs>
</svg>
