<?xml version="1.0" encoding="UTF-8" standalone="no"?>
<!DOCTYPE svg PUBLIC "-//W3C//DTD SVG 1.1//EN" "http://www.w3.org/Graphics/SVG/1.1/DTD/svg11.dtd">
<svg width="100%" height="100%" viewBox="0 0 1296 432" version="1.1" xmlns="http://www.w3.org/2000/svg" xmlns:xlink="http://www.w3.org/1999/xlink" xml:space="preserve" xmlns:serif="http://www.serif.com/" style="fill-rule:evenodd;clip-rule:evenodd;stroke-linejoin:round;stroke-miterlimit:2;">
    <g transform="matrix(0.273233,0,0,0.273233,544.511,39.8772)">
        <g transform="matrix(491.722,0,0,491.722,180,805.623)">
            <path d="M0.338,-0.587C0.422,-0.587 0.462,-0.544 0.481,-0.522L0.635,-0.575C0.611,-0.624 0.546,-0.723 0.338,-0.723C0.173,-0.723 0.055,-0.644 0.055,-0.511C0.055,-0.373 0.153,-0.312 0.313,-0.291L0.384,-0.281C0.447,-0.272 0.484,-0.253 0.484,-0.204C0.484,-0.156 0.435,-0.127 0.363,-0.127C0.257,-0.127 0.216,-0.195 0.2,-0.216L0.041,-0.157C0.065,-0.106 0.146,0.013 0.362,0.013C0.55,0.013 0.658,-0.082 0.658,-0.217C0.658,-0.371 0.556,-0.422 0.394,-0.443L0.324,-0.453C0.267,-0.461 0.229,-0.479 0.229,-0.52C0.229,-0.561 0.266,-0.587 0.338,-0.587Z" style="fill:rgb(159,193,49);fill-rule:nonzero;"/>
        </g>
        <g transform="matrix(491.722,0,0,491.722,553.217,805.623)">
            <path d="M0.231,-0.07C0.239,-0.054 0.284,0.011 0.381,0.011C0.503,0.011 0.595,-0.087 0.595,-0.259C0.595,-0.431 0.503,-0.529 0.381,-0.529C0.282,-0.529 0.239,-0.459 0.231,-0.443L0.231,-0.518L0.07,-0.518L0.07,0.2L0.231,0.2L0.231,-0.07ZM0.229,-0.259C0.229,-0.339 0.267,-0.391 0.33,-0.391C0.394,-0.391 0.431,-0.339 0.431,-0.259C0.431,-0.179 0.394,-0.127 0.33,-0.127C0.267,-0.127 0.229,-0.179 0.229,-0.259Z" style="fill:rgb(159,193,49);fill-rule:nonzero;"/>
        </g>
        <g transform="matrix(491.722,0,0,491.722,892.014,805.623)">
            <path d="M0.567,0.002L0.567,-0.122C0.543,-0.125 0.534,-0.137 0.534,-0.164L0.534,-0.32C0.534,-0.448 0.451,-0.531 0.288,-0.531C0.199,-0.531 0.137,-0.501 0.11,-0.475C0.082,-0.449 0.061,-0.421 0.054,-0.398L0.202,-0.36C0.215,-0.383 0.222,-0.388 0.234,-0.393C0.245,-0.398 0.258,-0.406 0.291,-0.407C0.347,-0.407 0.376,-0.373 0.376,-0.328L0.376,-0.323L0.233,-0.323C0.112,-0.323 0.038,-0.267 0.038,-0.163C0.038,-0.061 0.117,0.012 0.234,0.012C0.317,0.012 0.364,-0.027 0.386,-0.06C0.401,-0.021 0.435,0.002 0.491,0.002L0.567,0.002ZM0.282,-0.102C0.231,-0.102 0.199,-0.128 0.199,-0.167C0.199,-0.202 0.227,-0.221 0.267,-0.221L0.376,-0.221L0.376,-0.18C0.376,-0.133 0.335,-0.102 0.282,-0.102Z" style="fill:rgb(159,193,49);fill-rule:nonzero;"/>
        </g>
        <g transform="matrix(491.722,0,0,491.722,1210.16,805.623)">
            <path d="M0.231,-0.256C0.231,-0.327 0.266,-0.359 0.351,-0.359L0.446,-0.359L0.446,-0.519L0.381,-0.519C0.281,-0.519 0.245,-0.469 0.231,-0.442L0.231,-0.518L0.07,-0.518L0.07,-0L0.231,-0L0.231,-0.256Z" style="fill:rgb(159,193,49);fill-rule:nonzero;"/>
        </g>
        <g transform="matrix(491.722,0,0,491.722,1468.31,805.623)">
            <path d="M0.298,-0.531C0.146,-0.531 0.043,-0.422 0.043,-0.259C0.043,-0.099 0.143,0.013 0.309,0.013C0.473,0.013 0.532,-0.084 0.545,-0.131L0.398,-0.165C0.393,-0.154 0.37,-0.116 0.309,-0.116C0.245,-0.116 0.206,-0.163 0.202,-0.231L0.553,-0.231L0.553,-0.259C0.553,-0.425 0.454,-0.531 0.298,-0.531ZM0.298,-0.414C0.349,-0.414 0.382,-0.382 0.391,-0.327L0.204,-0.327C0.212,-0.38 0.245,-0.414 0.298,-0.414Z" style="fill:rgb(159,193,49);fill-rule:nonzero;"/>
        </g>
    </g>
    <g id="spare-logo" transform="matrix(0.166667,0,0,0.166667,234,126)">
        <path id="r348" d="M1080,348L1080,732C1080,924.066 924.066,1080 732,1080L348,1080C155.934,1080 0,924.066 0,732L0,348C0,155.934 155.934,0 348,0L732,0C924.066,0 1080,155.934 1080,348Z" style="fill:rgb(245,245,245);fill-opacity:0.5;"/>
        <g id="_-" serif:id="&gt;" transform="matrix(1.42283,0,0,1.42283,-220.999,-348.169)">
            <path d="M197.493,677.709L326.291,624.742L197.493,571.775L197.493,436.807L502.625,570.46L502.625,677.994L197.493,811.647L197.493,677.709Z" style="fill:url(#_Linear1);"/>
        </g>
        <g id="S" transform="matrix(1.87875,0,0,1.87875,158.93,-643.822)">
            <path d="M458.32,703.341C458.32,781.323 401.168,835.922 316.616,835.922C252.89,835.922 205.491,803.703 179.103,742.503L170.814,723.282L259.461,680.237L268.93,700.2C281.868,727.474 296.336,740.271 316.616,740.271C339.884,740.271 359.068,729.857 359.068,710.064C359.068,694.745 350.018,685.918 338.306,678.789C326.993,671.903 313.372,666.566 299.55,660.984C244.963,639.036 190.519,613.288 190.519,536.473C190.519,473.75 244.811,424.301 319.257,424.301C370.572,424.301 416.174,449.891 442.256,493.551L453.195,511.861L370.992,563.937L359.214,545.718C348.327,528.877 332.978,518.751 316.136,518.751C302.38,518.751 289.771,524.306 289.771,535.992C289.771,543.617 294.638,548.476 300.837,552.828C311.968,560.644 327.172,566.337 343.084,572.507L343.148,572.532C398.987,594.589 458.32,621.537 458.32,703.341Z" style="fill:url(#_Linear2);"/>
        </g>
    </g>
    <defs>
        <linearGradient id="_Linear1" x1="0" y1="0" x2="1" y2="0" gradientUnits="userSpaceOnUse" gradientTransform="matrix(305.132,0,0,374.84,197.493,624.227)"><stop offset="0" style="stop-color:rgb(204,219,30);stop-opacity:1"/><stop offset="1" style="stop-color:rgb(181,204,57);stop-opacity:1"/></linearGradient>
        <linearGradient id="_Linear2" x1="0" y1="0" x2="1" y2="0" gradientUnits="userSpaceOnUse" gradientTransform="matrix(287.506,0,0,411.621,170.814,630.111)"><stop offset="0" style="stop-color:rgb(181,204,57);stop-opacity:1"/><stop offset="1" style="stop-color:rgb(159,193,49);stop-opacity:1"/></linearGradient>
    </defs>
</svg>
