<?xml version="1.0" encoding="UTF-8" standalone="no"?>
<!DOCTYPE svg PUBLIC "-//W3C//DTD SVG 1.1//EN" "http://www.w3.org/Graphics/SVG/1.1/DTD/svg11.dtd">
<svg width="100%" height="100%" viewBox="0 0 1080 1080" version="1.1" xmlns="http://www.w3.org/2000/svg" xmlns:xlink="http://www.w3.org/1999/xlink" xml:space="preserve" xmlns:serif="http://www.serif.com/" style="fill-rule:evenodd;clip-rule:evenodd;stroke-linejoin:round;stroke-miterlimit:2;">
    <g id="spare-logo">
        <rect x="0" y="0" width="1080" height="1080" style="fill:none;"/>
        <g transform="matrix(1.79496,0,0,1.79496,-374.493,-580.464)">
            <path d="M225.349,769.035L474.769,659.785L474.769,588.669L225.349,479.419L225.349,553.111L399.531,624.742L225.349,696.373L225.349,769.035Z" style="fill:rgb(181,204,57);fill-rule:nonzero;"/>
        </g>
        <g transform="matrix(2.28365,0,0,2.28365,53.3547,-898.956)">
            <path d="M436.426,703.341C436.426,632.992 383.124,611.864 335.104,592.896C299.809,579.21 267.876,566.485 267.876,535.992C267.876,512.943 289.005,496.856 316.136,496.856C339.906,496.856 362.235,510.062 377.601,533.832L423.46,504.78C401.371,467.804 362.715,446.195 319.257,446.195C258.272,446.195 212.413,485.091 212.413,536.473C212.413,602.02 261.153,621.948 307.733,640.676C345.188,655.802 380.963,669.968 380.963,710.064C380.963,741.517 353.591,762.166 316.616,762.166C288.765,762.166 266.916,747.039 249.148,709.584L199.208,733.834C221.777,786.175 262.114,814.027 316.616,814.027C387.686,814.027 436.426,768.888 436.426,703.341Z" style="fill:rgb(159,193,49);fill-rule:nonzero;"/>
        </g>
    </g>
</svg>
