<?xml version="1.0" encoding="UTF-8" standalone="no"?>
<!DOCTYPE svg PUBLIC "-//W3C//DTD SVG 1.1//EN" "http://www.w3.org/Graphics/SVG/1.1/DTD/svg11.dtd">
<svg width="100%" height="100%" viewBox="0 0 1296 432" version="1.1" xmlns="http://www.w3.org/2000/svg" xmlns:xlink="http://www.w3.org/1999/xlink" xml:space="preserve" xmlns:serif="http://www.serif.com/" style="fill-rule:evenodd;clip-rule:evenodd;stroke-linejoin:round;stroke-miterlimit:2;">
    <g id="spare-logo" transform="matrix(0.166667,0,0,0.166667,234,126)">
        <rect x="0" y="0" width="1080" height="1080" style="fill:none;"/>
        <g transform="matrix(1.79496,0,0,1.79496,-374.493,-580.464)">
            <path d="M225.349,769.035L474.769,659.785L474.769,588.669L225.349,479.419L225.349,553.111L399.531,624.742L225.349,696.373L225.349,769.035Z" style="fill:rgb(181,204,57);fill-rule:nonzero;"/>
        </g>
        <g transform="matrix(2.28365,0,0,2.28365,53.3547,-898.956)">
            <path d="M436.426,703.341C436.426,632.992 383.124,611.864 335.104,592.896C299.809,579.21 267.876,566.485 267.876,535.992C267.876,512.943 289.005,496.856 316.136,496.856C339.906,496.856 362.235,510.062 377.601,533.832L423.46,504.78C401.371,467.804 362.715,446.195 319.257,446.195C258.272,446.195 212.413,485.091 212.413,536.473C212.413,602.02 261.153,621.948 307.733,640.676C345.188,655.802 380.963,669.968 380.963,710.064C380.963,741.517 353.591,762.166 316.616,762.166C288.765,762.166 266.916,747.039 249.148,709.584L199.208,733.834C221.777,786.175 262.114,814.027 316.616,814.027C387.686,814.027 436.426,768.888 436.426,703.341Z" style="fill:rgb(159,193,49);fill-rule:nonzero;"/>
        </g>
    </g>
    <g transform="matrix(0.273233,0,0,0.273233,544.511,39.8772)">
        <g transform="matrix(491.722,0,0,491.722,180,805.623)">
            <path d="M0.338,-0.587C0.422,-0.587 0.462,-0.544 0.481,-0.522L0.635,-0.575C0.611,-0.624 0.546,-0.723 0.338,-0.723C0.173,-0.723 0.055,-0.644 0.055,-0.511C0.055,-0.373 0.153,-0.312 0.313,-0.291L0.384,-0.281C0.447,-0.272 0.484,-0.253 0.484,-0.204C0.484,-0.156 0.435,-0.127 0.363,-0.127C0.257,-0.127 0.216,-0.195 0.2,-0.216L0.041,-0.157C0.065,-0.106 0.146,0.013 0.362,0.013C0.55,0.013 0.658,-0.082 0.658,-0.217C0.658,-0.371 0.556,-0.422 0.394,-0.443L0.324,-0.453C0.267,-0.461 0.229,-0.479 0.229,-0.52C0.229,-0.561 0.266,-0.587 0.338,-0.587Z" style="fill:rgb(141,168,55);fill-rule:nonzero;"/>
        </g>
        <g transform="matrix(491.722,0,0,491.722,553.217,805.623)">
            <path d="M0.231,-0.07C0.239,-0.054 0.284,0.011 0.381,0.011C0.503,0.011 0.595,-0.087 0.595,-0.259C0.595,-0.431 0.503,-0.529 0.381,-0.529C0.282,-0.529 0.239,-0.459 0.231,-0.443L0.231,-0.518L0.07,-0.518L0.07,0.2L0.231,0.2L0.231,-0.07ZM0.229,-0.259C0.229,-0.339 0.267,-0.391 0.33,-0.391C0.394,-0.391 0.431,-0.339 0.431,-0.259C0.431,-0.179 0.394,-0.127 0.33,-0.127C0.267,-0.127 0.229,-0.179 0.229,-0.259Z" style="fill:rgb(141,168,55);fill-rule:nonzero;"/>
        </g>
        <g transform="matrix(491.722,0,0,491.722,892.014,805.623)">
            <path d="M0.567,0.002L0.567,-0.122C0.543,-0.125 0.534,-0.137 0.534,-0.164L0.534,-0.32C0.534,-0.448 0.451,-0.531 0.288,-0.531C0.199,-0.531 0.137,-0.501 0.11,-0.475C0.082,-0.449 0.061,-0.421 0.054,-0.398L0.202,-0.36C0.215,-0.383 0.222,-0.388 0.234,-0.393C0.245,-0.398 0.258,-0.406 0.291,-0.407C0.347,-0.407 0.376,-0.373 0.376,-0.328L0.376,-0.323L0.233,-0.323C0.112,-0.323 0.038,-0.267 0.038,-0.163C0.038,-0.061 0.117,0.012 0.234,0.012C0.317,0.012 0.364,-0.027 0.386,-0.06C0.401,-0.021 0.435,0.002 0.491,0.002L0.567,0.002ZM0.282,-0.102C0.231,-0.102 0.199,-0.128 0.199,-0.167C0.199,-0.202 0.227,-0.221 0.267,-0.221L0.376,-0.221L0.376,-0.18C0.376,-0.133 0.335,-0.102 0.282,-0.102Z" style="fill:rgb(141,168,55);fill-rule:nonzero;"/>
        </g>
        <g transform="matrix(491.722,0,0,491.722,1210.16,805.623)">
            <path d="M0.231,-0.256C0.231,-0.327 0.266,-0.359 0.351,-0.359L0.446,-0.359L0.446,-0.519L0.381,-0.519C0.281,-0.519 0.245,-0.469 0.231,-0.442L0.231,-0.518L0.07,-0.518L0.07,-0L0.231,-0L0.231,-0.256Z" style="fill:rgb(141,168,55);fill-rule:nonzero;"/>
        </g>
        <g transform="matrix(491.722,0,0,491.722,1468.31,805.623)">
            <path d="M0.298,-0.531C0.146,-0.531 0.043,-0.422 0.043,-0.259C0.043,-0.099 0.143,0.013 0.309,0.013C0.473,0.013 0.532,-0.084 0.545,-0.131L0.398,-0.165C0.393,-0.154 0.37,-0.116 0.309,-0.116C0.245,-0.116 0.206,-0.163 0.202,-0.231L0.553,-0.231L0.553,-0.259C0.553,-0.425 0.454,-0.531 0.298,-0.531ZM0.298,-0.414C0.349,-0.414 0.382,-0.382 0.391,-0.327L0.204,-0.327C0.212,-0.38 0.245,-0.414 0.298,-0.414Z" style="fill:rgb(141,168,55);fill-rule:nonzero;"/>
        </g>
    </g>
</svg>
